<svg width="95" height="34" viewBox="0 0 95 34" fill="none" xmlns="http://www.w3.org/2000/svg">
<mask id="mask0_2178_18366" style="mask-type:alpha" maskUnits="userSpaceOnUse" x="0" y="0" width="33" height="34">
<path d="M0 6.5C0 3.67157 0 2.25736 0.87868 1.37868C1.75736 0.5 3.17157 0.5 6 0.5H31.2321C32.2085 0.5 33 1.2915 33 2.26786C33 19.5169 19.0169 33.5 1.76786 33.5C0.791496 33.5 0 32.7085 0 31.7321V6.5Z" fill="#99EA48"/>
</mask>
<g mask="url(#mask0_2178_18366)">
<path d="M0 6.5C0 3.67157 0 2.25736 0.87868 1.37868C1.75736 0.5 3.17157 0.5 6 0.5H31.2321C32.2085 0.5 33 1.2915 33 2.26786C33 19.5169 19.0169 33.5 1.76786 33.5C0.791496 33.5 0 32.7085 0 31.7321V6.5Z" fill="#FFE34F"/>
<path d="M11 18C11 15.1716 11 13.7574 11.8787 12.8787C12.7574 12 14.1716 12 17 12H24.25C24.6642 12 25 12.3358 25 12.75C25 20.0678 19.0678 26 11.75 26C11.3358 26 11 25.6642 11 25.25V18Z" fill="#191F33"/>
</g>
<path d="M42.92 26.5V9.22H45.812V23.788H53.444V26.5H42.92ZM60.0009 26.86C58.7049 26.86 57.5729 26.568 56.6049 25.984C55.6369 25.4 54.8849 24.596 54.3489 23.572C53.8209 22.54 53.5569 21.356 53.5569 20.02C53.5569 18.66 53.8289 17.468 54.3729 16.444C54.9169 15.42 55.6729 14.62 56.6409 14.044C57.6089 13.468 58.7289 13.18 60.0009 13.18C61.3049 13.18 62.4409 13.472 63.4089 14.056C64.3769 14.64 65.1289 15.448 65.6649 16.48C66.2009 17.504 66.4689 18.684 66.4689 20.02C66.4689 21.364 66.1969 22.552 65.6529 23.584C65.1169 24.608 64.3649 25.412 63.3969 25.996C62.4289 26.572 61.2969 26.86 60.0009 26.86ZM60.0009 24.148C61.1529 24.148 62.0089 23.764 62.5689 22.996C63.1289 22.228 63.4089 21.236 63.4089 20.02C63.4089 18.764 63.1249 17.764 62.5569 17.02C61.9889 16.268 61.1369 15.892 60.0009 15.892C59.2249 15.892 58.5849 16.068 58.0809 16.42C57.5849 16.764 57.2169 17.248 56.9769 17.872C56.7369 18.488 56.6169 19.204 56.6169 20.02C56.6169 21.276 56.9009 22.28 57.4689 23.032C58.0449 23.776 58.8889 24.148 60.0009 24.148ZM73.3608 32.62C72.6408 32.62 71.9488 32.508 71.2848 32.284C70.6288 32.06 70.0368 31.736 69.5088 31.312C68.9808 30.896 68.5488 30.392 68.2128 29.8L70.8768 28.48C71.1248 28.952 71.4728 29.3 71.9208 29.524C72.3768 29.756 72.8608 29.872 73.3728 29.872C73.9728 29.872 74.5088 29.764 74.9808 29.548C75.4528 29.34 75.8168 29.028 76.0728 28.612C76.3368 28.204 76.4608 27.692 76.4448 27.076V23.392H76.8048V13.54H79.3368V27.124C79.3368 27.452 79.3208 27.764 79.2888 28.06C79.2648 28.364 79.2208 28.66 79.1568 28.948C78.9648 29.788 78.5968 30.476 78.0528 31.012C77.5088 31.556 76.8328 31.96 76.0248 32.224C75.2248 32.488 74.3368 32.62 73.3608 32.62ZM73.1088 26.86C71.9168 26.86 70.8768 26.56 69.9888 25.96C69.1008 25.36 68.4128 24.544 67.9248 23.512C67.4368 22.48 67.1928 21.316 67.1928 20.02C67.1928 18.708 67.4368 17.54 67.9248 16.516C68.4208 15.484 69.1208 14.672 70.0248 14.08C70.9288 13.48 71.9928 13.18 73.2168 13.18C74.4488 13.18 75.4808 13.48 76.3128 14.08C77.1528 14.672 77.7888 15.484 78.2208 16.516C78.6528 17.548 78.8688 18.716 78.8688 20.02C78.8688 21.308 78.6528 22.472 78.2208 23.512C77.7888 24.544 77.1448 25.36 76.2888 25.96C75.4328 26.56 74.3728 26.86 73.1088 26.86ZM73.5528 24.268C74.3288 24.268 74.9528 24.092 75.4248 23.74C75.9048 23.38 76.2528 22.88 76.4688 22.24C76.6928 21.6 76.8048 20.86 76.8048 20.02C76.8048 19.172 76.6928 18.432 76.4688 17.8C76.2528 17.16 75.9128 16.664 75.4488 16.312C74.9848 15.952 74.3848 15.772 73.6488 15.772C72.8728 15.772 72.2328 15.964 71.7288 16.348C71.2248 16.724 70.8528 17.236 70.6128 17.884C70.3728 18.524 70.2528 19.236 70.2528 20.02C70.2528 20.812 70.3688 21.532 70.6008 22.18C70.8408 22.82 71.2048 23.328 71.6928 23.704C72.1808 24.08 72.8008 24.268 73.5528 24.268ZM87.2259 26.86C85.9299 26.86 84.7979 26.568 83.8299 25.984C82.8619 25.4 82.1099 24.596 81.5739 23.572C81.0459 22.54 80.7819 21.356 80.7819 20.02C80.7819 18.66 81.0539 17.468 81.5979 16.444C82.1419 15.42 82.8979 14.62 83.8659 14.044C84.8339 13.468 85.9539 13.18 87.2259 13.18C88.5299 13.18 89.6659 13.472 90.6339 14.056C91.6019 14.64 92.3539 15.448 92.8899 16.48C93.4259 17.504 93.6939 18.684 93.6939 20.02C93.6939 21.364 93.4219 22.552 92.8779 23.584C92.3419 24.608 91.5899 25.412 90.6219 25.996C89.6539 26.572 88.5219 26.86 87.2259 26.86ZM87.2259 24.148C88.3779 24.148 89.2339 23.764 89.7939 22.996C90.3539 22.228 90.6339 21.236 90.6339 20.02C90.6339 18.764 90.3499 17.764 89.7819 17.02C89.2139 16.268 88.3619 15.892 87.2259 15.892C86.4499 15.892 85.8099 16.068 85.3059 16.42C84.8099 16.764 84.4419 17.248 84.2019 17.872C83.9619 18.488 83.8419 19.204 83.8419 20.02C83.8419 21.276 84.1259 22.28 84.6939 23.032C85.2699 23.776 86.1139 24.148 87.2259 24.148Z" fill="#020407"/>
</svg>
